<svg width="16" height="16" viewBox="0 0 16 16" fill="none" xmlns="http://www.w3.org/2000/svg">
<path d="M4.59661 1.70184C4.48369 1.47598 4.25284 1.33331 4.00033 1.33331C3.74781 1.33331 3.51697 1.47598 3.40404 1.70184L3.1349 2.24013C2.91863 2.67266 2.87012 2.75205 2.81125 2.81091C2.75239 2.86977 2.67301 2.91829 2.24047 3.13455L1.70219 3.40369C1.47633 3.51662 1.33366 3.74747 1.33366 3.99998C1.33366 4.25249 1.47633 4.48334 1.70219 4.59627L2.24047 4.86541C2.67301 5.08167 2.75239 5.13019 2.81125 5.18905C2.87012 5.24791 2.91863 5.3273 3.1349 5.75983L3.40404 6.29812C3.51697 6.52398 3.74781 6.66665 4.00033 6.66665C4.25284 6.66665 4.48369 6.52398 4.59661 6.29812L4.86575 5.75983C5.08202 5.3273 5.13053 5.24791 5.1894 5.18905C5.24826 5.13019 5.32765 5.08167 5.76018 4.86541L6.29847 4.59627C6.52433 4.48334 6.66699 4.25249 6.66699 3.99998C6.66699 3.74747 6.52433 3.51662 6.29847 3.40369L5.76018 3.13455C5.32765 2.91829 5.24826 2.86977 5.1894 2.81091C5.13053 2.75205 5.08202 2.67266 4.86575 2.24013L4.59661 1.70184ZM11.2633 3.03517C11.1503 2.80931 10.9195 2.66665 10.667 2.66665C10.4145 2.66665 10.1837 2.80931 10.0707 3.03517L9.53239 4.11175C9.11913 4.93831 8.97213 5.21472 8.76026 5.42658C8.54839 5.63843 8.27199 5.78546 7.44539 6.19874L6.36885 6.73705C6.14299 6.84998 6.00033 7.08078 6.00033 7.33331C6.00033 7.58585 6.14299 7.81665 6.36885 7.92958L7.44539 8.46791C8.27199 8.88118 8.54839 9.02818 8.76026 9.24005C8.97213 9.45191 9.11913 9.72831 9.53239 10.5549L10.0707 11.6314C10.1837 11.8573 10.4145 12 10.667 12C10.9195 12 11.1503 11.8573 11.2633 11.6314L11.8016 10.5549C12.2149 9.72831 12.3619 9.45191 12.5737 9.24005C12.7856 9.02818 13.062 8.88118 13.8886 8.46791L14.9651 7.92958C15.191 7.81665 15.3337 7.58585 15.3337 7.33331C15.3337 7.08078 15.191 6.84998 14.9651 6.73705L13.8886 6.19874C13.062 5.78546 12.7856 5.63843 12.5737 5.42658C12.3619 5.21472 12.2149 4.93831 11.8016 4.11175L11.2633 3.03517ZM4.59661 8.36851C4.48369 8.14265 4.25284 7.99998 4.00033 7.99998C3.74781 7.99998 3.51697 8.14265 3.40404 8.36851L3.3102 8.55618C2.89691 9.38278 2.74989 9.65918 2.53803 9.87105C2.32618 10.0828 2.04977 10.2299 1.2232 10.6432L1.03552 10.737C0.809659 10.85 0.666992 11.0808 0.666992 11.3333C0.666992 11.5858 0.809659 11.8166 1.03552 11.9296L1.2232 12.0234C2.04977 12.4367 2.32618 12.5838 2.53803 12.7956C2.74989 13.0074 2.89691 13.2838 3.3102 14.1104L3.40404 14.2981C3.51697 14.524 3.74781 14.6666 4.00033 14.6666C4.25284 14.6666 4.48369 14.524 4.59661 14.2981L4.69045 14.1104C5.10374 13.2838 5.25076 13.0074 5.46262 12.7956C5.67447 12.5838 5.95088 12.4367 6.77746 12.0234L6.96513 11.9296C7.19099 11.8166 7.33366 11.5858 7.33366 11.3333C7.33366 11.0808 7.19099 10.85 6.96513 10.737L6.77746 10.6432C5.95088 10.2299 5.67447 10.0828 5.46262 9.87105C5.25076 9.65918 5.10374 9.38278 4.69045 8.55618L4.59661 8.36851Z" fill="black"/>
</svg>
