<svg width="381" height="515" viewBox="0 0 381 515" fill="none" xmlns="http://www.w3.org/2000/svg">
<rect x="0.5" y="0.5" width="380" height="514" rx="18.5" fill="white" stroke="#EDF1F3"/>
<g opacity="0.66" clip-path="url(#clip0_210_738)">
<path d="M298.711 185.979L298.563 185.098L349.736 176.584L400.97 145.843L370.58 113.321L391.051 92.2383L283.149 97.6053L297.9 116.42L297.634 116.699L265.115 150.759L257.825 114.123L264.177 96.3727L210.801 82.8482L231.855 -14.9873L265.098 95.6366L281.992 96.7408L335.211 -10.7245L392.714 91.8103L371.814 113.335L402.379 146.042L350.054 177.437L349.971 177.451L298.714 185.979H298.711ZM258.745 114.194L265.652 148.901L296.714 116.368L282.032 97.6424L265.066 96.5353L258.745 114.2V114.194ZM335.26 -8.80999L283 96.7208L391.417 91.3281L335.26 -8.80999ZM211.858 82.1948L264.106 95.4368L232.001 -11.4036L211.858 82.1948Z" fill="#DCE0E2"/>
<path d="M246.709 199.981L223.486 186.402L223.437 186.225L215.21 156.02V155.955L216.325 111.37L210.889 82.603L211.77 82.4375L217.222 111.298L217.219 111.344L216.107 155.912L224.252 185.814L247.161 199.21L246.709 199.981Z" fill="#DCE0E2"/>
<path d="M298.188 185.549L296.865 116.808L258.099 113.809L254.11 174.09L253.219 174.03L257.268 112.85L297.746 115.98L297.751 116.386L299.083 185.532L298.188 185.549Z" fill="#DCE0E2"/>
<path d="M314.511 207.505L298.294 185.828L265.594 150.716L251.461 200.543L215.312 156.246L216.004 155.684L251.069 198.648L265.169 148.944L298.994 185.272L314.656 206.209L349.51 176.752L370.771 113.19L371.619 113.472L350.279 177.271L314.511 207.505Z" fill="#DCE0E2"/>
<path d="M263.343 255.742L247.086 245.085L246.075 242.565L245.755 245.011L244.869 244.894L245.397 240.871L223.457 186.27L224.288 185.937L245.637 239.062L250.978 198.368L276.548 235.917L314.882 206.055L321.755 240.04L350.168 175.277L356.129 232.958L321.918 241.892L321.438 242.988L321.283 242.223L300.269 254.823L276.542 237.196L263.343 255.739V255.742ZM247.812 244.491L263.112 254.523L275.896 236.562L251.555 200.816L246.312 240.759L247.812 244.494V244.491ZM277.179 236.559L300.32 253.753L321.095 241.296L314.291 207.65L277.182 236.556L277.179 236.559ZM349.622 178.741L322.372 240.853L355.157 232.291L349.622 178.741Z" fill="#DCE0E2"/>
<path d="M314.353 316.602L355.491 231.917L406.502 274.545L405.856 274.839L314.353 316.599V316.602ZM355.794 233.335L316.242 314.756L404.839 274.322L355.794 233.338V233.335Z" fill="#DCE0E2"/>
<path d="M315.883 316.188L279.637 312.476L279.551 312.188L262.631 254.7L300.64 253.836L315.88 316.188H315.883ZM280.328 311.649L314.714 315.17L299.943 254.746L263.82 255.568L280.326 311.649H280.328Z" fill="#DCE0E2"/>
<path d="M280.391 312.639L236.527 241.652L247.557 244.354L247.343 245.222L238.436 243.039L281.151 312.171L280.391 312.639Z" fill="#DCE0E2"/>
<path d="M298.523 185.108L251.149 199.156L251.404 200.012L298.778 185.964L298.523 185.108Z" fill="#DCE0E2"/>
<path d="M259.342 117.322C261.551 116.408 262.6 113.88 261.685 111.674C260.77 109.469 258.238 108.421 256.029 109.335C253.82 110.248 252.771 112.777 253.686 114.983C254.601 117.188 257.133 118.236 259.342 117.322Z" fill="#DCE0E2"/>
<path d="M220.986 112.319C221.536 109.996 220.095 107.668 217.767 107.119C215.44 106.571 213.109 108.01 212.56 110.334C212.01 112.657 213.451 114.985 215.779 115.534C218.106 116.082 220.437 114.643 220.986 112.319Z" fill="#DCE0E2"/>
<path d="M300.988 118.674C302.245 116.643 301.615 113.979 299.581 112.724C297.548 111.469 294.88 112.097 293.623 114.128C292.366 116.159 292.995 118.823 295.029 120.078C297.063 121.333 299.731 120.704 300.988 118.674Z" fill="#DCE0E2"/>
<path d="M372.852 117.324C375.061 116.41 376.11 113.882 375.195 111.676C374.28 109.47 371.748 108.423 369.539 109.337C367.33 110.25 366.281 112.779 367.196 114.984C368.111 117.19 370.643 118.237 372.852 117.324Z" fill="#DCE0E2"/>
<path d="M264.761 100.384C267.152 100.384 269.09 98.4491 269.09 96.0617C269.09 93.6743 267.152 91.739 264.761 91.739C262.37 91.739 260.431 93.6743 260.431 96.0617C260.431 98.4491 262.37 100.384 264.761 100.384Z" fill="#DCE0E2"/>
<path d="M283.92 101.2C286.129 100.287 287.178 97.758 286.263 95.5524C285.348 93.3468 282.816 92.2994 280.607 93.213C278.398 94.1266 277.349 96.6552 278.264 98.8608C279.179 101.066 281.711 102.114 283.92 101.2Z" fill="#DCE0E2"/>
<path d="M212.986 86.5148C215.195 85.6012 216.244 83.0726 215.329 80.867C214.414 78.6613 211.881 77.6139 209.672 78.5275C207.463 79.4411 206.414 81.9698 207.329 84.1754C208.244 86.381 210.777 87.4284 212.986 86.5148Z" fill="#DCE0E2"/>
<path d="M255.54 200.3C255.923 197.943 254.32 195.723 251.96 195.34C249.6 194.958 247.376 196.558 246.993 198.915C246.61 201.271 248.213 203.491 250.573 203.874C252.933 204.257 255.157 202.656 255.54 200.3Z" fill="#DCE0E2"/>
<path d="M265.384 154.151C267.775 154.151 269.713 152.216 269.713 149.829C269.713 147.441 267.775 145.506 265.384 145.506C262.993 145.506 261.055 147.441 261.055 149.829C261.055 152.216 262.993 154.151 265.384 154.151Z" fill="#DCE0E2"/>
<path d="M314.582 211.18C316.973 211.18 318.911 209.244 318.911 206.857C318.911 204.47 316.973 202.534 314.582 202.534C312.191 202.534 310.253 204.47 310.253 206.857C310.253 209.244 312.191 211.18 314.582 211.18Z" fill="#DCE0E2"/>
<path d="M298.637 189.863C301.028 189.863 302.966 187.927 302.966 185.54C302.966 183.153 301.028 181.217 298.637 181.217C296.246 181.217 294.307 183.153 294.307 185.54C294.307 187.927 296.246 189.863 298.637 189.863Z" fill="#DCE0E2"/>
<path d="M215.658 160.289C218.049 160.289 219.987 158.353 219.987 155.966C219.987 153.579 218.049 151.643 215.658 151.643C213.267 151.643 211.329 153.579 211.329 155.966C211.329 158.353 213.267 160.289 215.658 160.289Z" fill="#DCE0E2"/>
<path d="M228.141 186.809C228.525 184.452 226.922 182.232 224.562 181.849C222.202 181.467 219.978 183.067 219.595 185.424C219.212 187.78 220.814 190.001 223.174 190.383C225.535 190.766 227.758 189.165 228.141 186.809Z" fill="#DCE0E2"/>
<path d="M276.442 240.891C278.833 240.891 280.771 238.955 280.771 236.568C280.771 234.18 278.833 232.245 276.442 232.245C274.051 232.245 272.113 234.18 272.113 236.568C272.113 238.955 274.051 240.891 276.442 240.891Z" fill="#DCE0E2"/>
<path d="M321.595 245.841C323.986 245.841 325.924 243.906 325.924 241.518C325.924 239.131 323.986 237.196 321.595 237.196C319.204 237.196 317.266 239.131 317.266 241.518C317.266 243.906 319.204 245.841 321.595 245.841Z" fill="#DCE0E2"/>
<path d="M247.449 249.111C249.84 249.111 251.778 247.175 251.778 244.788C251.778 242.401 249.84 240.465 247.449 240.465C245.058 240.465 243.12 242.401 243.12 244.788C243.12 247.175 245.058 249.111 247.449 249.111Z" fill="#DCE0E2"/>
<path d="M267.503 255.838C267.886 253.482 266.283 251.261 263.923 250.879C261.563 250.496 259.339 252.096 258.956 254.453C258.573 256.81 260.176 259.03 262.536 259.412C264.896 259.795 267.12 258.195 267.503 255.838Z" fill="#DCE0E2"/>
<path d="M303.355 257.347C305.046 255.659 305.046 252.922 303.355 251.234C301.665 249.546 298.924 249.546 297.233 251.234C295.542 252.922 295.542 255.659 297.233 257.347C298.924 259.035 301.665 259.035 303.355 257.347Z" fill="#DCE0E2"/>
<path d="M279.982 316.89C282.373 316.89 284.312 314.955 284.312 312.567C284.312 310.18 282.373 308.245 279.982 308.245C277.591 308.245 275.653 310.18 275.653 312.567C275.653 314.955 277.591 316.89 279.982 316.89Z" fill="#DCE0E2"/>
<path d="M241.622 243.618C242.315 241.334 241.021 238.92 238.733 238.228C236.445 237.536 234.028 238.828 233.335 241.112C232.642 243.397 233.935 245.811 236.223 246.503C238.512 247.195 240.928 245.903 241.622 243.618Z" fill="#DCE0E2"/>
<path d="M315.3 320C317.691 320 319.629 318.065 319.629 315.677C319.629 313.29 317.691 311.355 315.3 311.355C312.909 311.355 310.97 313.29 310.97 315.677C310.97 318.065 312.909 320 315.3 320Z" fill="#DCE0E2"/>
<path d="M359.842 234.362C360.802 232.047 359.701 229.393 357.383 228.434C355.065 227.476 352.407 228.575 351.447 230.89C350.486 233.205 351.587 235.858 353.906 236.817C356.224 237.776 358.882 236.677 359.842 234.362Z" fill="#DCE0E2"/>
<path d="M352.287 180.862C354.421 179.545 355.082 176.749 353.763 174.618C352.444 172.487 349.644 171.827 347.509 173.144C345.375 174.461 344.714 177.257 346.033 179.388C347.353 181.52 350.152 182.179 352.287 180.862Z" fill="#DCE0E2"/>
</g>
<defs>
<clipPath id="clip0_210_738">
<rect width="174" height="320" fill="white" transform="translate(207)"/>
</clipPath>
</defs>
</svg>
