<svg width="132" height="37" viewBox="0 0 132 37" fill="none" xmlns="http://www.w3.org/2000/svg">
<g clip-path="url(#clip0_210_704)">
<path d="M28.7031 7.82831H27.4774C27.4458 6.92817 27.3793 6.18076 27.2716 5.59258C27.1639 5.00115 26.9454 4.53646 26.6128 4.19525C26.2486 3.82154 25.7482 3.56483 25.1148 3.42509C24.4782 3.28536 23.6168 3.21387 22.5273 3.21387H16.0792V29.9614C16.0792 31.0175 16.1394 31.8721 16.2597 32.5253C16.38 33.1785 16.6081 33.6919 16.9406 34.0624C17.2732 34.4361 17.7292 34.6928 18.3025 34.8325C18.8789 34.9723 19.62 35.0437 20.5289 35.0437V36.2071C19.7403 36.2071 18.825 36.2006 17.7799 36.1844C16.7348 36.1681 15.6675 36.1616 14.578 36.1616H11.3317C10.2866 36.1616 9.38717 36.1779 8.63025 36.2071V35.0437C10.3563 35.0437 11.5218 34.7188 12.1267 34.0656C12.7316 33.4124 13.0356 32.0476 13.0356 29.9646V3.21387H7.49327C6.37213 3.21387 5.45685 3.28536 4.74426 3.42509C4.03167 3.56483 3.44893 3.8053 2.99604 4.1465C2.54315 4.48771 2.18527 4.95566 1.92874 5.54383C1.67221 6.13526 1.43468 6.89567 1.22565 7.82831H0L0.500396 1.39734C2.46714 1.49158 4.69359 1.55332 7.17656 1.58257C9.65954 1.61506 12.1869 1.62806 14.7617 1.62806C17.3365 1.62806 19.9082 1.61181 22.3911 1.58257C24.8741 1.55332 27.1132 1.48833 29.1116 1.39734L28.7031 7.82831Z" fill="#2B3744"/>
<path d="M29.6311 30.1043C29.0261 31.8136 28.89 33.0647 29.2225 33.8544C29.555 34.6473 30.7364 35.0437 32.7664 35.0437V36.2071C31.2526 36.1779 29.5867 36.1616 27.772 36.1616C25.9573 36.1616 24.3199 36.1779 22.8662 36.2071V34.9495C23.6833 34.9495 24.3484 34.8715 24.8646 34.7155C25.3777 34.5595 25.8179 34.2801 26.1821 33.8771C26.5463 33.5034 26.863 32.9997 27.1354 32.3628C27.4078 31.7259 27.7087 30.9265 28.0444 29.9646L38.3056 0H39.2146L49.1623 30.0588C49.4632 31.0207 49.7831 31.8136 50.1156 32.4343C50.4482 33.055 50.8124 33.5392 51.2051 33.8804C51.6295 34.2541 52.1045 34.5271 52.6366 34.696C53.1655 34.8683 53.7957 34.9852 54.521 35.047V36.2103C53.7641 36.2103 52.909 36.2038 51.9557 36.1876C51.0024 36.1714 50.0238 36.1649 49.0261 36.1649C48.0285 36.1649 47.0056 36.1714 46.0523 36.1876C45.099 36.2038 44.2597 36.2103 43.5313 36.2103V35.047C44.5004 35.047 45.2573 34.9852 45.8021 34.8618C46.3468 34.7383 46.711 34.4881 46.8915 34.1176C47.0721 33.7439 47.0974 33.2305 46.9612 32.5805C46.825 31.9274 46.6033 31.0727 46.3025 30.0166L43.9873 23.1209H31.9969L29.6342 30.1108L29.6311 30.1043ZM43.4838 21.5286L38.1251 5.07913L32.5859 21.5286H43.487H43.4838Z" fill="#EA2F3D"/>
<path d="M56.5384 7.12963C56.5384 6.13525 56.4687 5.34234 56.3325 4.75417C56.1964 4.16274 55.962 3.71429 55.6295 3.40233C55.2969 3.09362 54.8409 2.88889 54.2676 2.7979C53.6912 2.70367 52.966 2.64192 52.0887 2.61268V1.40057C52.6651 1.46232 53.4885 1.49481 54.5653 1.49481H57.9953C59.1766 1.49481 60.3199 1.48831 61.4252 1.47207C62.5305 1.45582 63.3856 1.43307 63.9905 1.40057V2.61268C63.1132 2.64517 62.3848 2.70691 61.8116 2.7979C61.2352 2.89214 60.7823 3.09362 60.4497 3.40233C60.1172 3.71429 59.8892 4.16274 59.7688 4.75417C59.6485 5.34559 59.5883 6.1385 59.5883 7.12963V30.0101C59.5883 32.0606 59.8828 33.4124 60.4751 34.0656C61.0641 34.7188 62.2391 35.0437 63.9937 35.0437V36.2071C63.3888 36.2071 62.5463 36.2006 61.4727 36.1843C60.3991 36.1681 59.2684 36.1616 58.0903 36.1616H54.6382C53.5487 36.1616 52.6999 36.1778 52.095 36.2071V35.0437C53.8496 35.0437 55.0309 34.709 55.639 34.0429C56.2439 33.3734 56.5479 32.0314 56.5479 30.0101V7.12963H56.5384Z" fill="#EA2F3D"/>
<path d="M132 18.6397C132 20.9405 131.591 23.1924 130.774 25.3957C129.957 27.6021 128.804 29.5584 127.322 31.2677C125.868 33.0062 124.114 34.3971 122.055 35.4369C119.996 36.4768 117.741 36.9967 115.287 36.9967C113.016 36.9967 110.875 36.5158 108.861 35.5507C106.847 34.5888 105.099 33.2825 103.616 31.6349C102.102 29.9874 100.915 28.0766 100.05 25.9026C99.1888 23.7286 98.7549 21.4279 98.7549 19.0069C98.7549 16.7095 99.1571 14.464 99.9584 12.2738C100.76 10.0835 101.887 8.12076 103.341 6.37897C104.823 4.66968 106.587 3.2886 108.633 2.23247C110.676 1.17635 112.94 0.646667 115.423 0.646667C117.662 0.646667 119.791 1.13736 121.805 2.11549C123.819 3.09362 125.583 4.40646 127.097 6.05401C128.579 7.70156 129.77 9.61233 130.663 11.7863C131.556 13.9603 132.003 16.2448 132.003 18.6365L132 18.6397ZM128.367 20.0371C128.367 18.1425 128.095 16.1375 127.55 14.0253C127.005 11.913 126.172 9.97303 125.051 8.19875C123.962 6.42771 122.562 4.96864 120.851 3.81828C119.141 2.66792 117.133 2.09274 114.834 2.09274C112.956 2.09274 111.252 2.48269 109.726 3.25935C108.196 4.03601 106.872 5.10838 105.751 6.47321C104.661 7.84129 103.813 9.47259 103.208 11.3671C102.603 13.2616 102.299 15.3284 102.299 17.5641C102.299 19.4911 102.571 21.5091 103.116 23.6214C103.661 25.7336 104.478 27.6769 105.567 29.4479C106.688 31.219 108.095 32.6715 109.792 33.8056C111.486 34.9397 113.501 35.5052 115.832 35.5052C117.83 35.5052 119.61 35.125 121.168 34.3646C122.726 33.6042 124.038 32.5415 125.095 31.1735C126.156 29.8054 126.964 28.1773 127.524 26.2796C128.085 24.385 128.364 22.302 128.364 20.0338L128.367 20.0371Z" fill="#2B3744"/>
<path d="M97.9353 2.60943C97.1467 2.60943 96.5038 2.66467 96.0066 2.77191C95.5062 2.88239 95.1198 3.09037 94.8474 3.40233C94.5434 3.71429 94.347 4.16274 94.2584 4.75416C94.1665 5.34559 94.1222 6.1385 94.1222 7.12963V25.1162C94.1222 26.8547 93.8656 28.4568 93.3494 29.9159C92.8332 31.3749 92.0762 32.6195 91.0786 33.6431C90.081 34.6993 88.8363 35.5247 87.3542 36.1128C85.8688 36.701 84.1586 36.9967 82.2235 36.9967C78.4991 36.9967 75.5537 36.0024 73.3906 34.0136C71.2243 32.0248 70.1127 28.8727 70.0525 24.554V7.26936C70.0525 6.27498 69.9828 5.47558 69.8466 4.8679C69.7105 4.26347 69.4603 3.80528 69.096 3.49332C68.7635 3.15211 68.3074 2.92789 67.7342 2.8174C67.1578 2.71016 66.4484 2.63867 65.5996 2.60618V1.39407C66.1728 1.42657 66.9994 1.44932 68.0762 1.46556C69.1499 1.48181 70.2932 1.48831 71.5062 1.48831C72.7192 1.48831 73.8308 1.48181 74.9361 1.46556C76.0414 1.44932 76.9124 1.42657 77.5489 1.39407V2.60618C76.64 2.63867 75.8989 2.70691 75.3225 2.8174C74.7461 2.92789 74.2932 3.15211 73.9607 3.49332C73.6281 3.80528 73.3937 4.26347 73.2576 4.8679C73.1214 5.47233 73.0517 6.27498 73.0517 7.26936V23.2542C73.0517 27.3259 73.891 30.3058 75.5727 32.2003C77.2544 34.0948 79.8957 35.0437 83.4967 35.0437C84.83 35.0437 86.0557 34.8098 87.1768 34.3451C88.2979 33.8804 89.2671 33.211 90.0842 32.3401C90.9013 31.4692 91.5378 30.4228 91.9907 29.1944C92.4436 27.9661 92.6717 26.6078 92.6717 25.1162V7.26936C92.6717 6.24248 92.6178 5.42683 92.5133 4.82241C92.4056 4.21798 92.2188 3.75979 91.9464 3.44782C91.6424 3.13911 91.2275 2.93439 90.6986 2.8434C90.1697 2.74916 89.4634 2.68742 88.5861 2.65817V1.40057C89.0707 1.43307 89.758 1.45582 90.6511 1.47206C91.5442 1.48831 92.4595 1.49481 93.4001 1.49481C94.3407 1.49481 95.1863 1.48831 96.0351 1.47206C96.8839 1.45582 97.5173 1.43307 97.9416 1.40057V2.61268L97.9353 2.60943Z" fill="#2B3744"/>
</g>
<defs>
<clipPath id="clip0_210_704">
<rect width="132" height="37" fill="white"/>
</clipPath>
</defs>
</svg>
