<svg width="49" height="49" viewBox="0 0 49 49" fill="none" xmlns="http://www.w3.org/2000/svg">
<circle cx="24.5" cy="24.5" r="24.5" transform="matrix(-1 0 0 1 49 0)" fill="#EA2F3D"/>
<path d="M20.414 23.6569L24.364 19.7069C24.5462 19.5183 24.647 19.2657 24.6447 19.0035C24.6424 18.7413 24.5372 18.4905 24.3518 18.3051C24.1664 18.1197 23.9156 18.0145 23.6534 18.0122C23.3912 18.01 23.1386 18.1108 22.95 18.2929L17.293 23.9499C17.1998 24.0426 17.1259 24.1527 17.0754 24.2741C17.0249 24.3954 16.999 24.5255 16.999 24.6569C16.999 24.7883 17.0249 24.9184 17.0754 25.0398C17.1259 25.1611 17.1998 25.2713 17.293 25.3639L22.95 31.0209C23.0422 31.1164 23.1526 31.1926 23.2746 31.245C23.3966 31.2974 23.5278 31.325 23.6606 31.3262C23.7934 31.3273 23.9251 31.302 24.048 31.2517C24.1709 31.2015 24.2825 31.1272 24.3764 31.0333C24.4703 30.9394 24.5445 30.8278 24.5948 30.7049C24.6451 30.582 24.6704 30.4503 24.6693 30.3175C24.6681 30.1847 24.6405 30.0535 24.5881 29.9315C24.5357 29.8095 24.4595 29.6992 24.364 29.6069L20.414 25.6569H30C30.2652 25.6569 30.5196 25.5516 30.7071 25.364C30.8946 25.1765 31 24.9221 31 24.6569C31 24.3917 30.8946 24.1373 30.7071 23.9498C30.5196 23.7623 30.2652 23.6569 30 23.6569H20.414V23.6569Z" fill="white"/>
</svg>
