<svg width="31" height="31" viewBox="0 0 31 31" fill="none" xmlns="http://www.w3.org/2000/svg">
<path d="M15.5 25.3861L14.5212 24.502C12.4132 22.5761 10.6695 20.9276 9.28999 19.5565C7.9107 18.1852 6.82194 16.9759 6.02369 15.9285C5.22544 14.8812 4.66776 13.9335 4.35066 13.0856C4.03355 12.2378 3.875 11.385 3.875 10.5271C3.875 8.88432 4.43311 7.50492 5.54932 6.38892C6.66532 5.27271 8.04472 4.7146 9.6875 4.7146C10.8235 4.7146 11.8891 5.00522 12.8844 5.58647C13.8796 6.16772 14.7515 7.01312 15.5 8.12266C16.2485 7.01312 17.1204 6.16772 18.1156 5.58647C19.1109 5.00522 20.1765 4.7146 21.3125 4.7146C22.9553 4.7146 24.3347 5.27271 25.4507 6.38892C26.5669 7.50492 27.125 8.88432 27.125 10.5271C27.125 11.385 26.9664 12.2378 26.6493 13.0856C26.3322 13.9335 25.7746 14.8812 24.9763 15.9285C24.1781 16.9759 23.0934 18.1852 21.7223 19.5565C20.3512 20.9276 18.6033 22.5761 16.4788 24.502L15.5 25.3861ZM15.5 23.6375C17.5667 21.7696 19.2674 20.1695 20.6021 18.8374C21.9368 17.505 22.9917 16.3491 23.7667 15.3696C24.5417 14.39 25.0799 13.5224 25.3812 12.7665C25.6826 12.0105 25.8333 11.264 25.8333 10.5271C25.8333 9.23543 25.4028 8.15904 24.5417 7.29793C23.6806 6.43682 22.6042 6.00627 21.3125 6.00627C20.2841 6.00627 19.3353 6.2998 18.466 6.88686C17.5965 7.47392 16.8181 8.35775 16.131 9.53833H14.869C14.1653 8.34117 13.3829 7.45315 12.5217 6.87427C11.6606 6.2956 10.7159 6.00627 9.6875 6.00627C8.41241 6.00627 7.34011 6.43682 6.4706 7.29793C5.60131 8.15904 5.16667 9.23543 5.16667 10.5271C5.16667 11.264 5.31736 12.0105 5.61875 12.7665C5.92014 13.5224 6.45833 14.39 7.23333 15.3696C8.00833 16.3491 9.06319 17.5008 10.3979 18.8248C11.7326 20.1487 13.4333 21.753 15.5 23.6375Z" fill="black"/>
</svg>
