<svg width="213" height="63" viewBox="0 0 213 63" fill="none" xmlns="http://www.w3.org/2000/svg">
<g clip-path="url(#clip0_210_251)">
<path d="M46.2867 12.3861H44.3102C44.2591 10.9619 44.1519 9.77934 43.9782 8.84872C43.8046 7.91295 43.4522 7.1777 42.9159 6.63784C42.3286 6.04656 41.5217 5.64037 40.5002 5.41928C39.4737 5.1982 38.0845 5.08508 36.3276 5.08508H25.9293V47.4054C25.9293 49.0764 26.0264 50.4287 26.2204 51.4621C26.4145 52.4956 26.7822 53.308 27.3185 53.8941C27.8548 54.4854 28.5902 54.8916 29.5146 55.1126C30.4441 55.3337 31.6392 55.4468 33.105 55.4468V57.2875C31.8333 57.2875 30.3573 57.2773 28.6719 57.2515C26.9865 57.2258 25.2654 57.2156 23.5085 57.2156H18.2736C16.5882 57.2156 15.1378 57.2413 13.9172 57.2875V55.4468C16.7006 55.4468 18.58 54.9327 19.5555 53.8992C20.531 52.8658 21.0213 50.7063 21.0213 47.4106V5.08508H12.0837C10.2757 5.08508 8.79973 5.1982 7.65061 5.41928C6.50148 5.64037 5.56176 6.02085 4.83143 6.56071C4.10109 7.10058 3.52398 7.84097 3.11029 8.77159C2.69661 9.70736 2.31357 10.9105 1.97649 12.3861H0L0.80694 2.21094C3.97852 2.36004 7.56889 2.45773 11.5729 2.50401C15.577 2.55542 19.6526 2.57599 23.8047 2.57599C27.9569 2.57599 32.104 2.55028 36.108 2.50401C40.1121 2.45773 43.7229 2.3549 46.9455 2.21094L46.2867 12.3861Z" fill="#2B3744"/>
<path d="M47.7831 47.6316C46.8076 50.3361 46.588 52.3156 47.1243 53.565C47.6605 54.8195 49.5655 55.4468 52.8392 55.4468V57.2875C50.398 57.2412 47.7116 57.2155 44.7852 57.2155C41.8587 57.2155 39.2183 57.2412 36.8741 57.2875V55.2977C38.1917 55.2977 39.2643 55.1743 40.0967 54.9275C40.9241 54.6807 41.634 54.2385 42.2213 53.601C42.8087 53.0097 43.3194 52.2127 43.7586 51.205C44.1978 50.1972 44.683 48.9324 45.2244 47.4105L61.7718 0H63.2375L79.2793 47.5596C79.7645 49.0815 80.2803 50.3361 80.8166 51.3181C81.3528 52.3002 81.9401 53.0662 82.5734 53.6061C83.2578 54.1974 84.0239 54.6293 84.8819 54.8966C85.7348 55.1692 86.7511 55.3543 87.9207 55.4519V57.2926C86.7001 57.2926 85.3211 57.2823 83.7839 57.2566C82.2466 57.2309 80.6685 57.2206 79.0597 57.2206C77.4509 57.2206 75.8013 57.2309 74.264 57.2566C72.7267 57.2823 71.3733 57.2926 70.1987 57.2926V55.4519C71.7615 55.4519 72.9821 55.3543 73.8605 55.1589C74.739 54.9635 75.3263 54.5676 75.6174 53.9814C75.9085 53.3902 75.9494 52.5778 75.7298 51.5495C75.5102 50.516 75.1527 49.1638 74.6675 47.4928L70.9341 36.5823H51.5982L47.7882 47.6419L47.7831 47.6316ZM70.1221 34.063L61.4806 8.03629L52.5481 34.063H70.1272H70.1221Z" fill="#EA2F3D"/>
<path d="M91.1737 11.2804C91.1737 9.7071 91.0613 8.45256 90.8417 7.52193C90.6221 6.58616 90.2442 5.87663 89.7079 5.38303C89.1717 4.89458 88.4362 4.57066 87.5118 4.4267C86.5823 4.27759 85.4127 4.1799 83.998 4.13363V2.21582C84.9276 2.31351 86.2554 2.36493 87.9919 2.36493H93.523C95.428 2.36493 97.2717 2.35464 99.0541 2.32894C100.837 2.30323 102.215 2.26724 103.191 2.21582V4.13363C101.776 4.18505 100.602 4.28274 99.6772 4.4267C98.7477 4.57581 98.0173 4.89458 97.4811 5.38303C96.9448 5.87663 96.5771 6.58616 96.383 7.52193C96.189 8.4577 96.0919 9.71224 96.0919 11.2804V47.4823C96.0919 50.7266 96.5669 52.8655 97.522 53.899C98.4719 54.9324 100.367 55.4466 103.196 55.4466V57.2873C102.221 57.2873 100.862 57.277 99.1307 57.2513C97.3994 57.2256 95.5761 57.2153 93.6762 57.2153H88.1094C86.3525 57.2153 84.9837 57.241 84.0083 57.2873V55.4466C86.8377 55.4466 88.7426 54.917 89.7232 53.863C90.6987 52.8038 91.189 50.6804 91.189 47.4823V11.2804H91.1737Z" fill="#EA2F3D"/>
<path d="M212.863 29.4919C212.863 33.1321 212.205 36.6952 210.887 40.1812C209.569 43.6724 207.71 46.7676 205.32 49.4721C202.976 52.2228 200.146 54.4234 196.827 56.0687C193.507 57.714 189.871 58.5367 185.913 58.5367C182.251 58.5367 178.798 57.7757 175.55 56.2487C172.302 54.7267 169.483 52.6598 167.093 50.0531C164.651 47.4463 162.736 44.423 161.342 40.9833C159.953 37.5436 159.253 33.9034 159.253 30.0729C159.253 26.4378 159.902 22.8849 161.194 19.4195C162.486 15.9541 164.304 12.8486 166.648 10.0927C169.038 7.38822 171.883 5.20305 175.182 3.53204C178.476 1.86103 182.128 1.02295 186.132 1.02295C189.743 1.02295 193.175 1.79933 196.423 3.34694C199.671 4.89456 202.516 6.97176 204.957 9.57854C207.348 12.1853 209.268 15.2086 210.708 18.6483C212.148 22.088 212.868 25.7025 212.868 29.4867L212.863 29.4919ZM207.005 31.7028C207.005 28.7052 206.566 25.5329 205.688 22.1908C204.809 18.8488 203.466 15.7793 201.658 12.972C199.901 10.1698 197.644 7.86125 194.886 6.04113C192.128 4.22101 188.89 3.31095 185.182 3.31095C182.154 3.31095 179.406 3.92794 176.944 5.15678C174.478 6.38562 172.343 8.08234 170.535 10.2418C168.778 12.4064 167.409 14.9875 166.434 17.985C165.458 20.9826 164.968 24.2526 164.968 27.79C164.968 30.839 165.407 34.0319 166.286 37.3739C167.164 40.7159 168.482 43.7906 170.239 46.5928C172.046 49.3949 174.314 51.6932 177.052 53.4876C179.784 55.282 183.032 56.1767 186.791 56.1767C190.014 56.1767 192.884 55.5751 195.397 54.372C197.909 53.1688 200.024 51.4876 201.73 49.3229C203.441 47.1583 204.743 44.5824 205.647 41.5797C206.551 38.5822 207 35.2864 207 31.6976L207.005 31.7028Z" fill="#2B3744"/>
<path d="M157.931 4.12852C156.659 4.12852 155.622 4.21592 154.821 4.3856C154.014 4.56041 153.39 4.88947 152.951 5.38306C152.461 5.87665 152.144 6.58619 152.001 7.52196C151.853 8.45773 151.782 9.71227 151.782 11.2805V39.7391C151.782 42.4898 151.368 45.0246 150.536 47.3332C149.703 49.6418 148.482 51.611 146.874 53.2306C145.265 54.9016 143.258 56.2076 140.868 57.1382C138.472 58.0688 135.714 58.5367 132.594 58.5367C126.588 58.5367 121.838 56.9634 118.35 53.8167C114.857 50.6701 113.064 45.6828 112.967 38.8496V11.5015C112.967 9.92822 112.855 8.66339 112.635 7.70191C112.415 6.74558 112.012 6.02062 111.424 5.52703C110.888 4.98716 110.153 4.63239 109.228 4.45758C108.299 4.28791 107.155 4.17479 105.786 4.12338V2.20557C106.711 2.25698 108.044 2.29297 109.78 2.31868C111.511 2.34439 113.355 2.35467 115.311 2.35467C117.267 2.35467 119.06 2.34439 120.842 2.31868C122.625 2.29297 124.029 2.25698 125.056 2.20557V4.12338C123.59 4.17479 122.395 4.28276 121.465 4.45758C120.536 4.63239 119.805 4.98716 119.269 5.52703C118.733 6.02062 118.355 6.74558 118.135 7.70191C117.916 8.65825 117.803 9.92822 117.803 11.5015V36.793C117.803 43.2354 119.157 47.9502 121.869 50.9477C124.581 53.9453 128.84 55.4466 134.647 55.4466C136.797 55.4466 138.774 55.0764 140.582 54.3412C142.39 53.6059 143.952 52.5468 145.27 51.1688C146.588 49.7909 147.614 48.1353 148.345 46.1918C149.075 44.2483 149.443 42.0991 149.443 39.7391V11.5015C149.443 9.8768 149.356 8.58627 149.187 7.62993C149.014 6.6736 148.712 5.94864 148.273 5.45504C147.783 4.96659 147.114 4.64268 146.261 4.49871C145.408 4.34961 144.269 4.25192 142.854 4.20564V2.21585C143.636 2.26727 144.744 2.30326 146.184 2.32896C147.624 2.35467 149.1 2.36496 150.617 2.36496C152.134 2.36496 153.498 2.35467 154.866 2.32896C156.235 2.30326 157.257 2.26727 157.941 2.21585V4.13366L157.931 4.12852Z" fill="#2B3744"/>
</g>
<defs>
<clipPath id="clip0_210_251">
<rect width="212.864" height="63" fill="white"/>
</clipPath>
</defs>
</svg>
