<svg width="119" height="36" viewBox="0 0 119 36" fill="none" xmlns="http://www.w3.org/2000/svg">
<g clip-path="url(#clip0_210_557)">
<path d="M25.8763 6.92435H24.7713C24.7428 6.12815 24.6828 5.46705 24.5857 4.94679C24.4887 4.42365 24.2917 4.01262 23.9919 3.71081C23.6635 3.38026 23.2124 3.15318 22.6414 3.02959C22.0675 2.90599 21.2909 2.84275 20.3087 2.84275H14.4956V26.5017C14.4956 27.4358 14.5499 28.1918 14.6584 28.7695C14.7669 29.3473 14.9724 29.8014 15.2722 30.1291C15.572 30.4597 15.9832 30.6867 16.4999 30.8103C17.0196 30.9339 17.6877 30.9972 18.5071 30.9972V32.0262C17.7962 32.0262 16.971 32.0204 16.0288 32.0061C15.0866 31.9917 14.1244 31.9859 13.1423 31.9859H10.2157C9.27354 31.9859 8.46268 32.0003 7.7803 32.0262V30.9972C9.33636 30.9972 10.3871 30.7097 10.9324 30.132C11.4777 29.5542 11.7518 28.347 11.7518 26.5045V2.84275H6.7553C5.74457 2.84275 4.91943 2.90599 4.27702 3.02959C3.63461 3.15318 3.10926 3.36589 2.70098 3.66769C2.29269 3.9695 1.97006 4.38341 1.73879 4.90367C1.50752 5.42681 1.29338 6.09941 1.10494 6.92435H0L0.451114 1.23598C2.22417 1.31934 4.23134 1.37395 6.46978 1.39982C8.70822 1.42856 10.9866 1.44006 13.3079 1.44006C15.6291 1.44006 17.9475 1.42569 20.1859 1.39982C22.4244 1.37395 24.443 1.31646 26.2446 1.23598L25.8763 6.92435Z" fill="#2B3744"/>
<path d="M26.7129 26.6281C26.1675 28.14 26.0448 29.2467 26.3446 29.9451C26.6443 30.6465 27.7093 30.9972 29.5395 30.9972V32.0262C28.1747 32.0003 26.6729 31.9859 25.0369 31.9859C23.4009 31.9859 21.9248 32.0003 20.6143 32.0262V30.9138C21.3509 30.9138 21.9505 30.8448 22.4159 30.7069C22.8784 30.5689 23.2753 30.3217 23.6036 29.9653C23.9319 29.6347 24.2175 29.1892 24.463 28.6258C24.7086 28.0624 24.9798 27.3553 25.2824 26.5045L34.5331 0H35.3526L44.3206 26.5879C44.5918 27.4387 44.8802 28.14 45.18 28.689C45.4798 29.2381 45.8081 29.6663 46.1622 29.9681C46.5448 30.2987 46.973 30.5401 47.4527 30.6896C47.9295 30.8419 48.4977 30.9454 49.1515 31V32.0291C48.4691 32.0291 47.6983 32.0233 46.8389 32.0089C45.9795 31.9946 45.0972 31.9888 44.1978 31.9888C43.2985 31.9888 42.3762 31.9946 41.5168 32.0089C40.6574 32.0233 39.9008 32.0291 39.2441 32.0291V31C40.1178 31 40.8002 30.9454 41.2913 30.8362C41.7824 30.727 42.1107 30.5056 42.2735 30.178C42.4362 29.8474 42.459 29.3933 42.3363 28.8184C42.2135 28.2406 42.0136 27.4847 41.7424 26.5505L39.6553 20.4511H28.8457L26.7157 26.6339L26.7129 26.6281ZM39.2013 19.0427L34.3704 4.49263L29.3767 19.0427H39.2042H39.2013Z" fill="#EA2F3D"/>
<path d="M50.9705 6.30636C50.9705 5.4268 50.9077 4.72546 50.7849 4.2052C50.6621 3.68206 50.4508 3.2854 50.151 3.00946C49.8513 2.73639 49.4401 2.55531 48.9233 2.47483C48.4037 2.39147 47.7499 2.33686 46.959 2.31099V1.23885C47.4786 1.29346 48.221 1.32221 49.1917 1.32221H52.2838C53.3488 1.32221 54.3795 1.31646 55.376 1.30209C56.3724 1.28771 57.1433 1.26759 57.6887 1.23885V2.31099C56.8978 2.33973 56.2411 2.39434 55.7243 2.47483C55.2047 2.55818 54.7964 2.73639 54.4966 3.00946C54.1968 3.2854 53.9912 3.68206 53.8827 4.2052C53.7742 4.72833 53.72 5.42968 53.72 6.30636V26.5448C53.72 28.3585 53.9855 29.5542 54.5194 30.132C55.0505 30.7097 56.1098 30.9972 57.6915 30.9972V32.0262C57.1462 32.0262 56.3867 32.0204 55.4188 32.0061C54.4509 31.9917 53.4316 31.9859 52.3695 31.9859H49.2574C48.2752 31.9859 47.51 32.0003 46.9647 32.0262V30.9972C48.5465 30.9972 49.6114 30.7011 50.1596 30.1119C50.7049 29.5197 50.979 28.3326 50.979 26.5448V6.30636H50.9705Z" fill="#EA2F3D"/>
<path d="M119 16.4874C119 18.5224 118.632 20.5143 117.895 22.4632C117.158 24.4149 116.119 26.1452 114.783 27.6571C113.472 29.1949 111.891 30.4252 110.035 31.345C108.179 32.2648 106.146 32.7247 103.933 32.7247C101.886 32.7247 99.9561 32.2992 98.1402 31.4456C96.3243 30.5947 94.7483 29.4393 93.4121 27.982C92.0473 26.5246 90.9766 24.8345 90.1972 22.9116C89.4206 20.9886 89.0294 18.9536 89.0294 16.8122C89.0294 14.78 89.392 12.7938 90.1144 10.8565C90.8367 8.91916 91.8532 7.18304 93.1637 5.64238C94.4999 4.13046 96.0902 2.90886 97.9346 1.97469C99.7762 1.04052 101.818 0.571999 104.056 0.571999C106.075 0.571999 107.993 1.00603 109.809 1.87121C111.625 2.7364 113.215 3.89764 114.58 5.35494C115.916 6.81225 116.99 8.50237 117.795 10.4253C118.6 12.3483 119.003 14.369 119.003 16.4845L119 16.4874ZM115.725 17.7233C115.725 16.0476 115.48 14.2741 114.988 12.4058C114.497 10.5374 113.746 8.82143 112.736 7.25202C111.754 5.6855 110.492 4.39491 108.95 3.37738C107.408 2.35985 105.598 1.85109 103.525 1.85109C101.832 1.85109 100.296 2.19602 98.9197 2.88299C97.5406 3.56996 96.3472 4.5185 95.3365 5.72574C94.3543 6.93584 93.5891 8.37878 93.0438 10.0545C92.4984 11.7303 92.2243 13.5584 92.2243 15.5359C92.2243 17.2404 92.4699 19.0254 92.961 20.8938C93.4521 22.7621 94.1887 24.481 95.1709 26.0475C96.1816 27.614 97.4493 28.8989 98.9796 29.902C100.507 30.9052 102.323 31.4053 104.424 31.4053C106.226 31.4053 107.831 31.069 109.235 30.3964C110.64 29.7238 111.822 28.7839 112.776 27.5738C113.732 26.3637 114.46 24.9236 114.966 23.245C115.471 21.5692 115.722 19.7268 115.722 17.7205L115.725 17.7233Z" fill="#2B3744"/>
<path d="M88.2899 2.30812C87.579 2.30812 86.9994 2.35698 86.5511 2.45184C86.1 2.54956 85.7517 2.73352 85.5061 3.00946C85.2321 3.2854 85.055 3.68206 84.9751 4.2052C84.8923 4.72833 84.8523 5.42968 84.8523 6.30636V22.216C84.8523 23.7538 84.621 25.1708 84.1557 26.4614C83.6903 27.752 83.0079 28.8529 82.1085 29.7583C81.2091 30.6925 80.0871 31.4226 78.7509 31.9428C77.4118 32.4631 75.87 32.7247 74.1255 32.7247C70.7678 32.7247 68.1125 31.8451 66.1625 30.086C64.2095 28.3269 63.2074 25.5387 63.1531 21.7187V6.42996C63.1531 5.5504 63.0903 4.84331 62.9676 4.3058C62.8448 3.77117 62.6192 3.36588 62.2909 3.08994C61.9911 2.78814 61.5799 2.58981 61.0632 2.49208C60.5435 2.39722 59.904 2.33399 59.1388 2.30524V1.2331C59.6556 1.26185 60.4008 1.28197 61.3715 1.29634C62.3394 1.31071 63.3701 1.31646 64.4637 1.31646C65.5572 1.31646 66.5593 1.31071 67.5558 1.29634C68.5522 1.28197 69.3374 1.26185 69.9113 1.2331V2.30524C69.0919 2.33399 68.4238 2.39435 67.9041 2.49208C67.3845 2.58981 66.9762 2.78814 66.6764 3.08994C66.3766 3.36588 66.1653 3.77117 66.0426 4.3058C65.9198 4.84043 65.857 5.5504 65.857 6.42996V20.569C65.857 24.1705 66.6136 26.8063 68.1297 28.4821C69.6458 30.1578 72.027 30.9972 75.2733 30.9972C76.4753 30.9972 77.5802 30.7902 78.591 30.3792C79.6017 29.9681 80.4754 29.376 81.212 28.6057C81.9486 27.8354 82.5225 26.9098 82.9308 25.8233C83.3391 24.7368 83.5446 23.5353 83.5446 22.216V6.42996C83.5446 5.52166 83.4961 4.80019 83.4019 4.26556C83.3048 3.73093 83.1364 3.32564 82.8908 3.0497C82.6167 2.77664 82.2427 2.59555 81.7659 2.51507C81.2891 2.43172 80.6524 2.3771 79.8615 2.35123V1.23885C80.2983 1.2676 80.9179 1.28772 81.7231 1.30209C82.5282 1.31646 83.3534 1.32221 84.2013 1.32221C85.0493 1.32221 85.8116 1.31646 86.5768 1.30209C87.342 1.28772 87.913 1.2676 88.2956 1.23885V2.31099L88.2899 2.30812Z" fill="#2B3744"/>
</g>
<defs>
<clipPath id="clip0_210_557">
<rect width="119" height="35.2197" fill="white"/>
</clipPath>
</defs>
</svg>
